<svg width="36" height="36" viewBox="0 0 36 36" fill="none" xmlns="http://www.w3.org/2000/svg">
<path d="M34.0417 25.0833H8.95833C8.48315 25.0833 8.02744 24.8946 7.69143 24.5586C7.35543 24.2226 7.16667 23.7668 7.16667 23.2917C7.16667 22.8165 7.35543 22.3608 7.69143 22.0248C8.02744 21.6888 8.48315 21.5 8.95833 21.5H27.6633C28.8613 21.5001 30.025 21.0999 30.9696 20.3631C31.9142 19.6262 32.5856 18.5949 32.8771 17.4329L35.8333 5.805C35.9004 5.54056 35.9063 5.2643 35.8504 4.99727C35.7945 4.73024 35.6784 4.4795 35.5108 4.26417C35.3366 4.04331 35.1128 3.86659 34.8576 3.74831C34.6023 3.63003 34.3228 3.57351 34.0417 3.58333H8.52833C8.15869 2.53781 7.47471 1.63221 6.57016 0.990681C5.66561 0.349157 4.58478 0.00311662 3.47583 0H1.79167C1.31649 0 0.86077 0.188764 0.524767 0.524767C0.188764 0.86077 0 1.31649 0 1.79167C0 2.26685 0.188764 2.72256 0.524767 3.05857C0.86077 3.39457 1.31649 3.58333 1.79167 3.58333H3.47583C3.88511 3.57141 4.28613 3.70003 4.61212 3.94778C4.93811 4.19554 5.16941 4.54747 5.2675 4.945L5.375 5.805L8.47458 17.9167C7.04904 17.9808 5.70738 18.6086 4.74473 19.662C3.78208 20.7154 3.27731 22.108 3.34146 23.5335C3.40561 24.9591 4.03342 26.3008 5.08679 27.2634C6.14016 28.226 7.5328 28.7308 8.95833 28.6667H9.28083C8.98617 29.4785 8.89148 30.3494 9.00479 31.2057C9.1181 32.0619 9.43607 32.8782 9.93178 33.5854C10.4275 34.2927 11.0863 34.8701 11.8525 35.2687C12.6187 35.6674 13.4697 35.8755 14.3333 35.8755C15.197 35.8755 16.048 35.6674 16.8142 35.2687C17.5803 34.8701 18.2392 34.2927 18.7349 33.5854C19.2306 32.8782 19.5486 32.0619 19.6619 31.2057C19.7752 30.3494 19.6805 29.4785 19.3858 28.6667H23.6142C23.3195 29.4785 23.2248 30.3494 23.3381 31.2057C23.4514 32.0619 23.7694 32.8782 24.2651 33.5854C24.7608 34.2927 25.4197 34.8701 26.1858 35.2687C26.952 35.6674 27.803 35.8755 28.6667 35.8755C29.5303 35.8755 30.3813 35.6674 31.1475 35.2687C31.9137 34.8701 32.5725 34.2927 33.0682 33.5854C33.5639 32.8782 33.8819 32.0619 33.9952 31.2057C34.1085 30.3494 34.0138 29.4785 33.7192 28.6667H34.0417C34.5168 28.6667 34.9726 28.4779 35.3086 28.1419C35.6446 27.8059 35.8333 27.3502 35.8333 26.875C35.8333 26.3998 35.6446 25.9441 35.3086 25.6081C34.9726 25.2721 34.5168 25.0833 34.0417 25.0833ZM31.7483 7.16667L29.4013 16.555C29.3032 16.9525 29.0719 17.3045 28.7459 17.5522C28.4199 17.8 28.0189 17.9286 27.6096 17.9167H12.1475L9.46 7.16667H31.7483ZM14.3333 32.25C13.979 32.25 13.6326 32.1449 13.3379 31.9481C13.0433 31.7512 12.8137 31.4714 12.6781 31.144C12.5424 30.8166 12.507 30.4563 12.5761 30.1088C12.6452 29.7612 12.8159 29.442 13.0664 29.1914C13.317 28.9409 13.6362 28.7702 13.9838 28.7011C14.3313 28.632 14.6916 28.6674 15.019 28.8031C15.3464 28.9387 15.6262 29.1683 15.8231 29.4629C16.0199 29.7576 16.125 30.104 16.125 30.4583C16.125 30.9335 15.9362 31.3892 15.6002 31.7252C15.2642 32.0612 14.8085 32.25 14.3333 32.25ZM28.6667 32.25C28.3123 32.25 27.9659 32.1449 27.6713 31.9481C27.3766 31.7512 27.147 31.4714 27.0114 31.144C26.8758 30.8166 26.8403 30.4563 26.9094 30.1088C26.9786 29.7612 27.1492 29.442 27.3998 29.1914C27.6503 28.9409 27.9696 28.7702 28.3171 28.7011C28.6647 28.632 29.0249 28.6674 29.3523 28.8031C29.6797 28.9387 29.9595 29.1683 30.1564 29.4629C30.3533 29.7576 30.4583 30.104 30.4583 30.4583C30.4583 30.9335 30.2696 31.3892 29.9336 31.7252C29.5976 32.0612 29.1418 32.25 28.6667 32.25Z" fill="black"/>
</svg>
