<svg width="30" height="30" viewBox="0 0 30 30" fill="none" xmlns="http://www.w3.org/2000/svg">
<path d="M28.4614 22.1764L25.3564 18.9964C24.6885 18.3616 23.8461 17.9409 22.9373 17.7885C22.0285 17.6362 21.0949 17.7591 20.2564 18.1414L18.9064 16.7914C20.4973 14.6658 21.2238 12.0164 20.9397 9.37668C20.6557 6.73692 19.3822 4.30277 17.3756 2.56423C15.369 0.825693 12.7782 -0.0881339 10.1249 0.00670742C7.47162 0.101549 4.95275 1.19802 3.07538 3.07538C1.19802 4.95275 0.101549 7.47162 0.00670742 10.1249C-0.0881339 12.7782 0.825693 15.369 2.56423 17.3756C4.30277 19.3822 6.73692 20.6557 9.37669 20.9397C12.0164 21.2238 14.6658 20.4973 16.7914 18.9064L18.1264 20.2414C17.6991 21.0809 17.5459 22.0333 17.6885 22.9644C17.8312 23.8955 18.2624 24.7584 18.9214 25.4314L22.1014 28.6114C22.9452 29.4541 24.0889 29.9275 25.2814 29.9275C26.4739 29.9275 27.6177 29.4541 28.4614 28.6114C28.89 28.1923 29.2306 27.6918 29.4631 27.1393C29.6956 26.5868 29.8154 25.9934 29.8154 25.3939C29.8154 24.7945 29.6956 24.2011 29.4631 23.6485C29.2306 23.096 28.89 22.5955 28.4614 22.1764ZM15.7414 15.8164C14.6918 16.8634 13.3554 17.5759 11.901 17.8637C10.4467 18.1516 8.93967 18.0019 7.57033 17.4337C6.20099 16.8655 5.03077 15.9042 4.2075 14.6712C3.38423 13.4383 2.94484 11.989 2.94484 10.5064C2.94484 9.02388 3.38423 7.57458 4.2075 6.34162C5.03077 5.10867 6.20099 4.14736 7.57033 3.57915C8.93967 3.01094 10.4467 2.8613 11.901 3.14916C13.3554 3.43701 14.6918 4.14943 15.7414 5.19643C16.4399 5.89312 16.994 6.72075 17.3721 7.63193C17.7502 8.5431 17.9448 9.51992 17.9448 10.5064C17.9448 11.4929 17.7502 12.4698 17.3721 13.3809C16.994 14.2921 16.4399 15.1197 15.7414 15.8164ZM26.3464 26.4214C26.207 26.562 26.0411 26.6736 25.8583 26.7498C25.6755 26.8259 25.4795 26.8651 25.2814 26.8651C25.0834 26.8651 24.8874 26.8259 24.7046 26.7498C24.5218 26.6736 24.3559 26.562 24.2164 26.4214L21.0364 23.2414C20.8958 23.102 20.7842 22.9361 20.7081 22.7533C20.6319 22.5705 20.5927 22.3744 20.5927 22.1764C20.5927 21.9784 20.6319 21.7824 20.7081 21.5996C20.7842 21.4168 20.8958 21.2509 21.0364 21.1114C21.1759 20.9708 21.3418 20.8592 21.5246 20.7831C21.7074 20.7069 21.9034 20.6677 22.1014 20.6677C22.2994 20.6677 22.4955 20.7069 22.6783 20.7831C22.8611 20.8592 23.027 20.9708 23.1664 21.1114L26.3464 24.2914C26.487 24.4309 26.5986 24.5968 26.6748 24.7796C26.7509 24.9624 26.7901 25.1584 26.7901 25.3564C26.7901 25.5544 26.7509 25.7505 26.6748 25.9333C26.5986 26.1161 26.487 26.282 26.3464 26.4214Z" fill="black"/>
</svg>
