<svg width="20" height="20" viewBox="0 0 20 20" fill="none" xmlns="http://www.w3.org/2000/svg">
<path d="M0 10C0 4.47715 4.47715 0 10 0V0C15.5228 0 20 4.47715 20 10V10C20 15.5228 15.5228 20 10 20V20C4.47715 20 0 15.5228 0 10V10Z" fill="black"/>
<path d="M3.93414 15.8179L4.79159 12.7042C4.26148 11.7903 3.98339 10.7553 3.98628 9.69727C3.98628 6.38181 6.69766 3.6862 10.0261 3.6862C11.6425 3.6862 13.1604 4.31182 14.2988 5.44772C15.4401 6.58363 16.0687 8.09432 16.0658 9.70016C16.0658 13.0156 13.3544 15.7112 10.0232 15.7112H10.0203C9.00929 15.7112 8.0157 15.4575 7.13218 14.9789L3.93414 15.8179ZM7.28571 13.892L7.46821 14.0016C8.23875 14.4571 9.12226 14.6964 10.0232 14.6993H10.0261C12.7925 14.6993 15.0462 12.4592 15.0462 9.70304C15.0462 8.36821 14.5247 7.1141 13.5775 6.16847C12.6303 5.22285 11.3673 4.7039 10.0261 4.7039C7.25964 4.70102 5.00595 6.94112 5.00595 9.69727C5.00595 10.64 5.26956 11.5597 5.77359 12.3554L5.89236 12.5457L5.38543 14.3879L7.28571 13.892Z" fill="white"/>
<path d="M4.14563 15.6074L4.97411 12.6005C4.46138 11.7211 4.19198 10.7207 4.19198 9.70015C4.19487 6.50002 6.81066 3.89666 10.0261 3.89666C11.5874 3.89666 13.0503 4.50209 14.1511 5.59763C15.2519 6.69318 15.8573 8.15198 15.8573 9.70304C15.8573 12.9032 13.2386 15.5065 10.0261 15.5065H10.0232C9.04697 15.5065 8.08814 15.2615 7.23649 14.8002L4.14563 15.6074Z" fill="black"/>
<path d="M3.93414 15.8179L4.79159 12.7042C4.26148 11.7903 3.98339 10.7553 3.98628 9.69727C3.98628 6.38181 6.69766 3.6862 10.0261 3.6862C11.6425 3.6862 13.1604 4.31182 14.2988 5.44772C15.4401 6.58363 16.0687 8.09432 16.0658 9.70016C16.0658 13.0156 13.3544 15.7112 10.0232 15.7112H10.0203C9.00929 15.7112 8.0157 15.4575 7.13218 14.9789L3.93414 15.8179ZM7.28571 13.892L7.46821 14.0016C8.23875 14.4571 9.12226 14.6964 10.0232 14.6993H10.0261C12.7925 14.6993 15.0462 12.4592 15.0462 9.70304C15.0462 8.36821 14.5247 7.1141 13.5775 6.16847C12.6303 5.22285 11.3673 4.7039 10.0261 4.7039C7.25964 4.70102 5.00595 6.94112 5.00595 9.69727C5.00595 10.64 5.26956 11.5597 5.77359 12.3554L5.89236 12.5457L5.38543 14.3879L7.28571 13.892Z" fill="url(#paint0_linear_405_205)"/>
<path fill-rule="evenodd" clip-rule="evenodd" d="M8.51678 7.18329C8.4038 6.93247 8.28503 6.9267 8.17785 6.92382C8.09095 6.92094 7.98956 6.92094 7.88818 6.92094C7.78679 6.92094 7.62457 6.95842 7.48553 7.10833C7.34648 7.25825 6.95831 7.62151 6.95831 8.36244C6.95831 9.10049 7.50001 9.81548 7.57533 9.91638C7.65064 10.0173 8.62106 11.5828 10.1535 12.1853C11.428 12.687 11.6887 12.586 11.9639 12.5601C12.2391 12.5342 12.8561 12.1968 12.9836 11.8451C13.1082 11.4934 13.1082 11.1936 13.0705 11.1301C13.0328 11.0667 12.9315 11.0292 12.7808 10.9543C12.6302 10.8793 11.8886 10.516 11.7496 10.4642C11.6105 10.4151 11.5091 10.3892 11.4107 10.5391C11.3093 10.689 11.0196 11.0263 10.9327 11.1272C10.8458 11.2281 10.756 11.2397 10.6053 11.1647C10.4547 11.0898 9.96806 10.9312 9.3916 10.418C8.9426 10.0202 8.63844 9.52717 8.55154 9.37726C8.46463 9.22734 8.54285 9.14662 8.61816 9.07166C8.68479 9.00535 8.7688 8.8958 8.84411 8.80931C8.91943 8.72282 8.9455 8.65939 8.99474 8.55848C9.04399 8.45758 9.02082 8.37109 8.98316 8.29613C8.9455 8.22406 8.65003 7.48024 8.51678 7.18329Z" fill="white"/>
<defs>
<linearGradient id="paint0_linear_405_205" x1="10.0012" y1="15.8168" x2="10.0012" y2="3.6862" gradientUnits="userSpaceOnUse">
<stop stop-color="#F9F9F9"/>
<stop offset="1" stop-color="white"/>
</linearGradient>
</defs>
</svg>
