<svg width="142" height="142" viewBox="0 0 142 142" fill="none" xmlns="http://www.w3.org/2000/svg">
<path d="M131.905 121.834C136.344 115.883 139.39 109.012 140.819 101.727C142.247 94.4422 142.022 86.9293 140.159 79.743C138.296 72.5568 134.844 65.8805 130.056 60.207C125.268 54.5334 119.267 50.0074 112.496 46.9629C111.022 38.4778 107.632 30.4405 102.585 23.4617C97.5389 16.4828 90.968 10.7461 83.372 6.68733C75.7761 2.62859 67.3549 0.354635 58.7484 0.0382532C50.1419 -0.278128 41.5764 1.37138 33.703 4.86146C25.8295 8.35153 18.8551 13.5903 13.3098 20.1798C7.76441 26.7693 3.79399 34.5361 1.70018 42.89C-0.393626 51.2439 -0.555732 59.9652 1.22619 68.3912C3.0081 76.8172 6.68716 84.7261 11.9838 91.5171L2.13797 101.292C1.15511 102.288 0.489301 103.553 0.224568 104.927C-0.0401653 106.301 0.108037 107.723 0.650475 109.013C1.18187 110.307 2.08427 111.414 3.24395 112.195C4.40364 112.977 5.76871 113.398 7.16714 113.405H47.4713C51.485 121.866 57.8132 129.018 65.7233 134.033C73.6333 139.047 82.8017 141.718 92.1671 141.738H134.667C136.066 141.731 137.431 141.31 138.59 140.529C139.75 139.747 140.652 138.64 141.184 137.346C141.726 136.056 141.874 134.635 141.61 133.261C141.345 131.886 140.679 130.622 139.696 129.625L131.905 121.834ZM42.5838 92.1546C42.5935 94.5267 42.783 96.8945 43.1505 99.238H24.238L26.7171 96.8296C27.3811 96.1711 27.908 95.3877 28.2676 94.5245C28.6272 93.6614 28.8124 92.7355 28.8124 91.8005C28.8124 90.8654 28.6272 89.9395 28.2676 89.0764C27.908 88.2132 27.3811 87.4298 26.7171 86.7713C22.7474 82.845 19.6002 78.1668 17.4596 73.01C15.319 67.8531 14.2281 62.3213 14.2505 56.738C14.2505 45.4663 18.7281 34.6562 26.6984 26.6859C34.6687 18.7156 45.4788 14.2379 56.7505 14.2379C65.5457 14.1851 74.1364 16.8898 81.315 21.972C88.4935 27.0541 93.8989 34.2581 96.7713 42.5713C95.213 42.5713 93.7255 42.5713 92.1671 42.5713C79.0168 42.5713 66.4051 47.7952 57.1064 57.0939C47.8078 66.3926 42.5838 79.0043 42.5838 92.1546ZM117.242 127.571L117.596 127.925H92.1671C83.9741 127.911 76.0396 125.056 69.7152 119.848C63.3909 114.639 59.0679 107.399 57.4829 99.3608C55.8978 91.3226 57.1486 82.9834 61.0223 75.7639C64.8959 68.5445 71.1528 62.8913 78.7269 59.7675C86.301 56.6437 94.724 56.2425 102.561 58.6322C110.397 61.022 117.163 66.0548 121.706 72.8734C126.248 79.692 128.286 87.8746 127.472 96.0271C126.658 104.18 123.043 111.798 117.242 117.584C115.908 118.892 115.144 120.674 115.117 122.542C115.121 123.479 115.311 124.406 115.676 125.27C116.04 126.133 116.573 126.915 117.242 127.571V127.571Z" fill="#4EB8F1"/>
</svg>
