<svg width="194" height="150" viewBox="0 0 194 150" fill="none" xmlns="http://www.w3.org/2000/svg">
<path d="M99.7059 76.9412C104.414 72.8659 108.19 67.8255 110.778 62.162C113.366 56.4985 114.706 50.3445 114.706 44.1176C114.706 32.4169 110.058 21.1954 101.784 12.9218C93.5105 4.6481 82.289 1.57863e-06 70.5882 1.57863e-06C58.8875 1.57863e-06 47.666 4.6481 39.3923 12.9218C31.1187 21.1954 26.4706 32.4169 26.4706 44.1176C26.4705 50.3445 27.81 56.4985 30.3982 62.162C32.9863 67.8255 36.7626 72.8659 41.4706 76.9412C29.1189 82.5343 18.6394 91.5664 11.2851 102.958C3.93084 114.349 0.012987 127.617 0 141.176C0 143.517 0.929619 145.761 2.58435 147.416C4.23908 149.07 6.48338 150 8.82353 150C11.1637 150 13.408 149.07 15.0627 147.416C16.7174 145.761 17.6471 143.517 17.6471 141.176C17.6471 127.136 23.2248 113.67 33.1532 103.741C43.0816 93.813 56.5474 88.2353 70.5882 88.2353C84.6291 88.2353 98.0949 93.813 108.023 103.741C117.952 113.67 123.529 127.136 123.529 141.176C123.529 143.517 124.459 145.761 126.114 147.416C127.768 149.07 130.013 150 132.353 150C134.693 150 136.937 149.07 138.592 147.416C140.247 145.761 141.176 143.517 141.176 141.176C141.163 127.617 137.246 114.349 129.891 102.958C122.537 91.5664 112.058 82.5343 99.7059 76.9412ZM70.5882 70.5882C65.3528 70.5882 60.235 69.0358 55.882 66.1271C51.5289 63.2185 48.1361 59.0844 46.1326 54.2475C44.1291 49.4106 43.6049 44.0883 44.6263 38.9535C45.6476 33.8187 48.1687 29.1021 51.8707 25.4001C55.5727 21.6981 60.2893 19.1771 65.4241 18.1557C70.5589 17.1343 75.8812 17.6585 80.7181 19.662C85.555 21.6655 89.6891 25.0583 92.5977 29.4114C95.5064 33.7644 97.0588 38.8823 97.0588 44.1176C97.0588 51.1381 94.27 57.871 89.3058 62.8352C84.3416 67.7994 77.6087 70.5882 70.5882 70.5882ZM156.529 73.4118C162.176 67.0529 165.865 59.1975 167.151 50.7912C168.438 42.3849 167.267 33.7859 163.78 26.0294C160.294 18.2729 154.639 11.6894 147.498 7.07138C140.357 2.45338 132.034 -0.00227294 123.529 1.57863e-06C121.189 1.57863e-06 118.945 0.92962 117.29 2.58435C115.636 4.23909 114.706 6.48339 114.706 8.82353C114.706 11.1637 115.636 13.408 117.29 15.0627C118.945 16.7174 121.189 17.6471 123.529 17.6471C130.55 17.6471 137.283 20.4359 142.247 25.4001C147.211 30.3643 150 37.0972 150 44.1176C149.988 48.7521 148.758 53.3021 146.436 57.3125C144.113 61.323 140.778 64.6534 136.765 66.9706C135.457 67.7252 134.364 68.8029 133.591 70.1006C132.819 71.3984 132.393 72.8726 132.353 74.3824C132.316 75.8803 132.661 77.3629 133.356 78.6905C134.051 80.0181 135.072 81.1469 136.324 81.9706L139.765 84.2647L140.912 84.8823C151.548 89.9269 160.52 97.9058 166.773 107.879C173.026 117.853 176.299 129.405 176.206 141.176C176.206 143.517 177.136 145.761 178.79 147.416C180.445 149.07 182.689 150 185.029 150C187.37 150 189.614 149.07 191.269 147.416C192.923 145.761 193.853 143.517 193.853 141.176C193.925 127.636 190.534 114.302 184.001 102.442C177.469 90.5812 168.012 80.588 156.529 73.4118Z" fill="#4EB8F1"/>
</svg>
