<svg width="159" height="154" viewBox="0 0 159 154" fill="none" xmlns="http://www.w3.org/2000/svg">
<path d="M125.977 68.9983C120.397 68.9983 115.873 73.5201 115.873 79.0981C115.873 84.6761 120.397 89.1979 125.977 89.1979C131.557 89.1979 136.08 84.6761 136.08 79.0981C136.08 73.5201 131.557 68.9983 125.977 68.9983Z" fill="#4EB8F1"/>
<path fill-rule="evenodd" clip-rule="evenodd" d="M16.2358 45.6904L33.0229 43.8253V11.7363C33.0229 6.53864 36.984 2.19675 42.1616 1.71899C67.0009 -0.572998 91.9987 -0.572998 116.838 1.71899C122.016 2.19675 125.977 6.53866 125.977 11.7363V43.8252L142.764 45.6904C148.958 46.3786 154.068 50.8502 155.57 56.8965C160.143 75.3092 160.143 94.5605 155.57 112.973L154.089 118.938C153.417 121.64 150.99 123.537 148.205 123.537H125.977V142.388C125.977 147.414 122.167 151.622 117.164 152.122C92.1169 154.626 66.8827 154.626 41.8359 152.122C36.8328 151.622 33.0229 147.414 33.0229 142.388V123.537H10.7951C8.00965 123.537 5.58268 121.64 4.91149 118.938L3.43 112.973C-1.14333 94.5605 -1.14333 75.3092 3.43 56.8965C4.93177 50.8502 10.0417 46.3786 16.2358 45.6904ZM113.852 42.6544C90.989 40.7803 68.0106 40.7803 45.1473 42.6544V13.6193C68.0053 11.62 90.9943 11.62 113.852 13.6193V42.6544ZM113.852 113.451C113.837 112.175 113.019 111.076 111.858 110.666C90.3284 108.758 68.6717 108.758 47.1417 110.666C45.9699 111.08 45.1475 112.195 45.1475 113.486V117.478L45.1473 117.528V140.267C67.9984 142.418 91.0012 142.418 113.852 140.267V113.451ZM143.464 111.418H125.977V108.727C125.977 103.701 122.167 99.4927 117.164 98.9926C116.069 98.8832 114.974 98.7786 113.879 98.6787C113.42 98.5856 112.953 98.5131 112.479 98.462C90.5565 96.1011 68.4435 96.1011 46.5208 98.462C46.0469 98.513 45.5801 98.5856 45.1213 98.6787C44.0258 98.7785 42.9307 98.8832 41.8359 98.9926C36.8328 99.4927 33.0229 103.701 33.0229 108.727V111.418H15.5362L15.1971 110.053C11.1002 93.5579 11.1002 76.3118 15.1971 59.817C15.476 58.6942 16.4249 57.8639 17.5751 57.7361L34.4064 55.866C64.3765 52.5362 94.6235 52.5362 124.594 55.866L141.425 57.7361C142.575 57.8639 143.524 58.6942 143.803 59.817C147.9 76.3118 147.9 93.5579 143.803 110.053L143.464 111.418Z" fill="#4EB8F1"/>
</svg>
