<svg width="189" height="154" viewBox="0 0 189 154" fill="none" xmlns="http://www.w3.org/2000/svg">
<path d="M187.623 74.0056L187.11 73.0644C186.963 72.6411 186.761 72.2385 186.511 71.8667L165.978 44.4889C163.587 41.3012 160.487 38.7139 156.923 36.9319C153.359 35.1499 149.429 34.2222 145.444 34.2222H128.333V25.6667C128.333 18.8594 125.629 12.331 120.816 7.51759C116.002 2.70416 109.474 0 102.667 0H25.6667C18.8594 0 12.331 2.70416 7.51759 7.51759C2.70416 12.331 0 18.8594 0 25.6667V119.778C0 122.047 0.901386 124.223 2.50586 125.827C4.11034 127.432 6.28648 128.333 8.55556 128.333H17.1111C17.1111 135.141 19.8153 141.669 24.6287 146.482C29.4421 151.296 35.9706 154 42.7778 154C49.585 154 56.1134 151.296 60.9269 146.482C65.7403 141.669 68.4445 135.141 68.4445 128.333H119.778C119.778 135.141 122.482 141.669 127.295 146.482C132.109 151.296 138.637 154 145.444 154C152.252 154 158.78 151.296 163.594 146.482C168.407 141.669 171.111 135.141 171.111 128.333H179.667C181.936 128.333 184.112 127.432 185.716 125.827C187.321 124.223 188.222 122.047 188.222 119.778V77C188.204 75.974 188.001 74.9597 187.623 74.0056ZM42.7778 136.889C41.0857 136.889 39.4315 136.387 38.0246 135.447C36.6176 134.507 35.521 133.171 34.8735 131.607C34.2259 130.044 34.0565 128.324 34.3866 126.664C34.7167 125.005 35.5316 123.48 36.7281 122.284C37.9246 121.087 39.4491 120.272 41.1087 119.942C42.7683 119.612 44.4885 119.781 46.0518 120.429C47.6152 121.077 48.9514 122.173 49.8915 123.58C50.8316 124.987 51.3333 126.641 51.3333 128.333C51.3333 130.602 50.432 132.779 48.8275 134.383C47.223 135.988 45.0469 136.889 42.7778 136.889ZM111.222 111.222H61.7711C59.3655 108.576 56.4332 106.461 53.1624 105.014C49.8916 103.567 46.3544 102.819 42.7778 102.819C39.2012 102.819 35.664 103.567 32.3932 105.014C29.1224 106.461 26.1901 108.576 23.7844 111.222H17.1111V25.6667C17.1111 23.3976 18.0125 21.2215 19.617 19.617C21.2215 18.0125 23.3976 17.1111 25.6667 17.1111H102.667C104.936 17.1111 107.112 18.0125 108.716 19.617C110.321 21.2215 111.222 23.3976 111.222 25.6667V111.222ZM128.333 51.3333H145.444C146.773 51.3333 148.083 51.6426 149.271 52.2366C150.459 52.8306 151.492 53.693 152.289 54.7556L162.556 68.4444H128.333V51.3333ZM145.444 136.889C143.752 136.889 142.098 136.387 140.691 135.447C139.284 134.507 138.188 133.171 137.54 131.607C136.893 130.044 136.723 128.324 137.053 126.664C137.383 125.005 138.198 123.48 139.395 122.284C140.591 121.087 142.116 120.272 143.775 119.942C145.435 119.612 147.155 119.781 148.719 120.429C150.282 121.077 151.618 122.173 152.558 123.58C153.498 124.987 154 126.641 154 128.333C154 130.602 153.099 132.779 151.494 134.383C149.89 135.988 147.714 136.889 145.444 136.889ZM171.111 111.222H164.438C159.885 106.209 153.536 103.198 146.773 102.846C140.011 102.493 133.383 104.827 128.333 109.34V85.5556H171.111V111.222Z" fill="#4EB8F1"/>
</svg>
