<svg width="67" height="67" viewBox="0 0 67 67" fill="none" xmlns="http://www.w3.org/2000/svg">
<path d="M30.9667 45.7C31.2837 46.0035 31.6575 46.2414 32.0667 46.4C32.8782 46.7334 33.7885 46.7334 34.6 46.4C35.0092 46.2414 35.383 46.0035 35.7 45.7L45.7 35.7C46.3277 35.0723 46.6803 34.221 46.6803 33.3333C46.6803 32.4457 46.3277 31.5944 45.7 30.9667C45.0723 30.339 44.221 29.9864 43.3333 29.9864C42.4457 29.9864 41.5943 30.339 40.9667 30.9667L36.6667 35.3V23.3333C36.6667 22.4493 36.3155 21.6014 35.6904 20.9763C35.0652 20.3512 34.2174 20 33.3333 20C32.4493 20 31.6014 20.3512 30.9763 20.9763C30.3512 21.6014 30 22.4493 30 23.3333V35.3L25.7 30.9667C25.3901 30.6543 25.0215 30.4063 24.6153 30.237C24.2091 30.0678 23.7734 29.9807 23.3333 29.9807C22.8933 29.9807 22.4576 30.0678 22.0514 30.237C21.6452 30.4063 21.2765 30.6543 20.9667 30.9667C20.6542 31.2766 20.4063 31.6452 20.237 32.0514C20.0678 32.4576 19.9807 32.8933 19.9807 33.3333C19.9807 33.7734 20.0678 34.2091 20.237 34.6153C20.4063 35.0215 20.6542 35.3901 20.9667 35.7L30.9667 45.7ZM33.3333 66.6667C39.926 66.6667 46.3707 64.7117 51.8523 61.049C57.334 57.3863 61.6064 52.1803 64.1293 46.0895C66.6522 39.9986 67.3124 33.2964 66.0262 26.8303C64.74 20.3643 61.5653 14.4249 56.9036 9.76312C52.2418 5.10137 46.3024 1.92668 39.8363 0.640506C33.3703 -0.645668 26.6681 0.0144428 20.5772 2.53736C14.4863 5.06029 9.28039 9.3327 5.61768 14.8143C1.95497 20.296 0 26.7406 0 33.3333C0 42.1739 3.51189 50.6524 9.76311 56.9036C12.8584 59.9989 16.533 62.4542 20.5772 64.1293C24.6214 65.8045 28.9559 66.6667 33.3333 66.6667V66.6667ZM33.3333 6.66668C38.6075 6.66668 43.7632 8.23065 48.1485 11.1608C52.5338 14.091 55.9518 18.2558 57.9701 23.1285C59.9885 28.0012 60.5166 33.3629 59.4876 38.5358C58.4587 43.7086 55.9189 48.4601 52.1895 52.1895C48.4601 55.9189 43.7086 58.4587 38.5357 59.4876C33.3629 60.5166 28.0011 59.9885 23.1284 57.9701C18.2557 55.9518 14.091 52.5339 11.1608 48.1486C8.23064 43.7632 6.66667 38.6075 6.66667 33.3333C6.66667 26.2609 9.47618 19.4781 14.4772 14.4772C19.4781 9.4762 26.2609 6.66668 33.3333 6.66668V6.66668Z" fill="white"/>
</svg>
