<svg width="28" height="26" viewBox="0 0 28 26" fill="none" xmlns="http://www.w3.org/2000/svg">
<path d="M16.7951 12.3329H20.1821C20.3663 12.334 20.5489 12.2994 20.7195 12.2313C20.89 12.1631 21.0451 12.0627 21.1759 11.9358L27.586 5.66375C27.7172 5.53644 27.8213 5.38498 27.8924 5.2181C27.9634 5.05122 28 4.87222 28 4.69144C28 4.51066 27.9634 4.33166 27.8924 4.16479C27.8213 3.99791 27.7172 3.84644 27.586 3.71914L24.199 0.405079C24.0689 0.276724 23.9141 0.174845 23.7435 0.10532C23.573 0.0357949 23.39 0 23.2053 0C23.0205 0 22.8376 0.0357949 22.667 0.10532C22.4965 0.174845 22.3417 0.276724 22.2116 0.405079L15.8014 6.67714C15.5457 6.93957 15.4007 7.28686 15.3955 7.64944V10.9635C15.3955 11.3267 15.543 11.675 15.8055 11.9318C16.0679 12.1887 16.4239 12.3329 16.7951 12.3329ZM18.1947 8.22461L23.2053 3.322L24.6049 4.69144L19.5943 9.59405H18.1947V8.22461ZM26.5923 10.9635C26.2211 10.9635 25.8651 11.1078 25.6026 11.3646C25.3402 11.6214 25.1927 11.9697 25.1927 12.3329V21.9191C25.1927 22.2823 25.0452 22.6306 24.7828 22.8874C24.5203 23.1442 24.1643 23.2885 23.7931 23.2885H4.19878C3.82759 23.2885 3.4716 23.1442 3.20912 22.8874C2.94665 22.6306 2.79919 22.2823 2.79919 21.9191V8.75869L11.0288 16.8247C11.4194 17.2119 11.8846 17.5192 12.3976 17.729C12.9105 17.9388 13.461 18.0469 14.0169 18.0469C14.5729 18.0469 15.1233 17.9388 15.6363 17.729C16.1492 17.5192 16.6145 17.2119 17.0051 16.8247C17.2615 16.5687 17.4052 16.2246 17.4052 15.8661C17.4052 15.5077 17.2615 15.1635 17.0051 14.9075C16.8747 14.7771 16.7191 14.6734 16.5472 14.6027C16.3754 14.5319 16.1908 14.4955 16.0044 14.4955C15.8179 14.4955 15.6334 14.5319 15.4615 14.6027C15.2897 14.6734 15.134 14.7771 15.0036 14.9075C14.742 15.1584 14.3903 15.299 14.0239 15.299C13.6576 15.299 13.3058 15.1584 13.0442 14.9075L4.77262 6.82777H11.1968C11.5679 6.82777 11.9239 6.6835 12.1864 6.42667C12.4489 6.16985 12.5963 5.82153 12.5963 5.45833C12.5963 5.09513 12.4489 4.74681 12.1864 4.48999C11.9239 4.23317 11.5679 4.08889 11.1968 4.08889H4.19878C3.0852 4.08889 2.01722 4.52173 1.2298 5.29219C0.442371 6.06265 0 7.10762 0 8.19722V21.8917C0 22.9813 0.442371 24.0262 1.2298 24.7967C2.01722 25.5672 3.0852 26 4.19878 26H23.7931C24.9067 26 25.9747 25.5672 26.7621 24.7967C27.5495 24.0262 27.9919 22.9813 27.9919 21.8917V12.3056C27.9919 11.9424 27.8444 11.594 27.582 11.3372C27.3195 11.0804 26.9635 10.9361 26.5923 10.9361V10.9635Z" fill="white"/>
</svg>
